<?xml version="1.0" encoding="UTF-8"?>
<svg xmlns="http://www.w3.org/2000/svg" xmlns:xlink="http://www.w3.org/1999/xlink" width="437.36pt" height="138.24pt" viewBox="0 0 437.36 138.24" version="1.1">
<defs>
<clipPath id="clip1">
  <path d="M 147 25 L 437.359375 25 L 437.359375 138.238281 L 147 138.238281 Z M 147 25 "/>
</clipPath>
</defs>
<g id="surface1">
<path style=" stroke:none;fill-rule:nonzero;fill:rgb(0%,63.09967%,67.498779%);fill-opacity:1;" d="M 11.4375 22.867188 C 5.121094 22.867188 0 17.746094 0 11.433594 C 0 5.113281 5.121094 -0.00390625 11.4375 -0.00390625 C 17.75 -0.00390625 22.871094 5.113281 22.871094 11.433594 C 22.871094 17.746094 17.75 22.867188 11.4375 22.867188 "/>
<path style=" stroke:none;fill-rule:evenodd;fill:rgb(50.19989%,50.999451%,52.198792%);fill-opacity:1;" d="M 137.785156 101.328125 L 137.785156 58.527344 C 137.785156 46.988281 135.746094 38.855469 131 34.109375 C 126.925781 28.675781 120.144531 25.964844 112 25.964844 C 107.933594 25.964844 103.859375 27.3125 99.789063 29.359375 C 95.71875 32.0625 92.324219 34.785156 90.289063 38.171875 C 87.578125 30.039063 80.789063 25.964844 70.617188 25.964844 C 61.113281 25.964844 53.652344 29.359375 48.226563 36.136719 C 48.226563 30.707031 44.832031 27.996094 39.40625 27.996094 C 38.050781 27.996094 36.691406 27.996094 33.976563 28.675781 L 33.976563 101.273438 L 50.257813 101.273438 L 50.257813 61.246094 C 50.257813 56.484375 50.9375 52.421875 52.292969 49.714844 C 55.691406 42.921875 60.4375 39.535156 67.21875 39.535156 C 74.683594 39.535156 78.078125 45.632813 78.078125 57.851563 L 78.078125 101.273438 L 94.363281 101.273438 L 94.363281 63.277344 C 94.363281 58.527344 94.679688 47.871094 101.144531 42.921875 C 103.859375 40.886719 106.574219 39.535156 110.648438 39.535156 C 118.109375 39.535156 121.5 45.632813 121.5 57.851563 L 121.5 101.328125 L 137.785156 101.328125 "/>
<path style=" stroke:none;fill-rule:evenodd;fill:rgb(50.19989%,50.999451%,52.198792%);fill-opacity:1;" d="M 20.878906 101.273438 L 20.878906 40.886719 C 20.878906 32.0625 16.808594 27.996094 9.347656 27.996094 L 4.597656 28.675781 L 4.597656 101.273438 L 20.878906 101.273438 "/>
<g clip-path="url(#clip1)" clip-rule="nonzero">
<path style=" stroke:none;fill-rule:evenodd;fill:rgb(50.19989%,50.999451%,52.198792%);fill-opacity:1;" d="M 382.125 80.246094 C 382.125 87.710938 379.480469 93.25 373.296875 97.886719 C 360.773438 106.648438 340.046875 101.28125 330.546875 97.203125 L 334.621094 85.003906 C 342.085938 88.390625 349.546875 90.421875 355.65625 90.421875 C 364.089844 90.867188 366.511719 85.003906 366.511719 82.277344 C 366.511719 78.210938 363.121094 74.824219 357.011719 72.101563 C 346.148438 66.671875 340.722656 63.964844 340.046875 63.285156 C 333.9375 59.21875 331.226563 53.785156 330.546875 46.996094 C 330.546875 40.210938 333.9375 34.792969 339.367188 30.71875 C 344.117188 27.320313 350.230469 25.96875 357.691406 25.96875 C 365.15625 25.96875 372.617188 28 380.089844 32.070313 L 375.335938 44.289063 C 369.222656 40.898438 363.804688 38.859375 357.691406 38.859375 C 350.90625 38.859375 346.835938 41.566406 346.835938 45.644531 C 346.835938 48.359375 350.230469 51.074219 356.339844 53.785156 C 365.15625 57.855469 370.585938 60.570313 372.617188 62.601563 C 378.726563 67.351563 382.125 73.464844 382.125 80.246094 Z M 437.363281 80.246094 C 437.363281 73.464844 433.96875 67.351563 427.859375 62.601563 C 425.828125 60.570313 420.394531 57.855469 411.578125 53.785156 C 405.46875 51.074219 402.074219 48.359375 402.074219 45.644531 C 402.074219 41.566406 406.148438 38.859375 412.933594 38.859375 C 419.042969 38.859375 424.460938 40.898438 430.574219 44.289063 L 435.332031 32.070313 C 427.859375 28 420.394531 25.96875 412.933594 25.96875 C 405.46875 25.96875 399.359375 27.320313 394.609375 30.71875 C 389.179688 34.792969 385.785156 40.210938 385.785156 46.996094 C 386.46875 53.785156 389.179688 59.21875 395.289063 63.285156 C 395.964844 63.964844 401.390625 66.671875 412.25 72.101563 C 418.359375 74.824219 421.746094 78.210938 421.746094 82.277344 C 421.746094 85.003906 419.332031 90.867188 410.898438 90.421875 C 404.789063 90.421875 397.328125 88.390625 389.859375 85.003906 L 385.785156 97.203125 C 395.289063 101.28125 416.015625 106.648438 428.539063 97.886719 C 434.722656 93.25 437.363281 87.710938 437.363281 80.246094 Z M 260.757813 26.636719 C 258.601563 26.1875 256.015625 25.96875 253.308594 25.96875 C 244.222656 25.726563 236.335938 33.429688 234.984375 36.148438 C 234.300781 30.71875 230.90625 28 225.488281 28 C 224.804688 28 222.773438 28 220.730469 28.683594 L 220.730469 101.28125 L 237.015625 101.28125 L 237.015625 62.601563 C 237.015625 57.855469 236.976563 49.351563 241.765625 44.289063 C 244.484375 41.566406 247.878906 40.210938 251.265625 40.210938 C 254.667969 40.210938 257.375 40.898438 259.414063 42.246094 Z M 277.054688 68.714844 C 277.46875 88.25 296.730469 89.75 298.082031 89.75 C 306.226563 89.75 314.371094 87.023438 321.835938 80.921875 L 323.863281 93.816406 C 315.726563 99.925781 306.226563 102.632813 296.050781 102.632813 C 295.378906 102.632813 260.363281 102.546875 260.09375 63.964844 C 260.019531 53.785156 265.84375 25.847656 295.378906 25.96875 C 321.160156 26.070313 325.222656 52.425781 325.222656 58.535156 C 325.222656 65.320313 322.503906 68.035156 317.074219 68.714844 Z M 308.941406 56.492188 C 308.941406 51.742188 305.261719 38.011719 293.335938 38.859375 C 279.871094 38.941406 278.40625 51.742188 277.726563 56.492188 Z M 195.878906 65.320313 C 195.878906 58.535156 195.199219 52.425781 192.484375 47.675781 C 189.777344 42.246094 185.699219 39.542969 180.273438 39.542969 C 180.273438 39.542969 169.136719 39.40625 165.34375 50.386719 C 163.992188 54.46875 163.3125 60.570313 163.3125 68.714844 L 163.3125 80.921875 C 167.347656 88.757813 176.878906 89.75 179.601563 89.75 C 190.449219 89.75 195.878906 81.597656 195.878906 65.320313 Z M 147.703125 70.746094 C 147.703125 62.601563 147.027344 42.5625 159.914063 32.75 C 169.117188 25.746094 180.953125 25.96875 180.953125 25.96875 C 191.800781 25.96875 199.945313 30.042969 206.058594 38.859375 C 210.804688 45.644531 212.839844 54.46875 212.839844 64.648438 C 212.839844 75.496094 210.804688 84.320313 206.058594 91.105469 C 200.628906 99.246094 191.800781 102.632813 180.273438 102.632813 C 180.273438 102.632813 180.273438 102.632813 179.601563 102.632813 C 173.488281 102.632813 168.058594 100.597656 163.3125 96.519531 L 163.277344 125.347656 C 163.277344 134.175781 159.910156 138.238281 152.445313 138.238281 L 147.699219 137.558594 L 147.703125 70.746094 "/>
</g>
</g>
</svg>
