<svg xml:space="preserve" viewBox="20.75 20.5 59.5 59.25" y="0px" x="0px" version="1.1" xmlns:xlink="http://www.w3.org/1999/xlink" xmlns="http://www.w3.org/2000/svg" style="max-height: 500px" width="59.5" height="59.25"><g><path d="M22.985,22.238c-0.056,0-0.113,0-0.141,0.028c-0.563,0.112-0.816,0.927-0.394,1.32l26.424,26.42L22.45,76.37   c-0.366,0.281-0.394,0.871-0.084,1.18s0.9,0.28,1.182-0.084L50,51.073l26.452,26.393c0.282,0.364,0.845,0.393,1.183,0.084   c0.31-0.309,0.281-0.898-0.085-1.18L51.098,50.006l26.452-26.42c0.479-0.478-0.056-1.46-0.703-1.32   c-0.169,0.028-0.31,0.112-0.395,0.225L50,48.855L23.548,22.491C23.407,22.322,23.182,22.238,22.985,22.238L22.985,22.238z"/></g><text font-family="'Helvetica Neue', Helvetica, Arial-Unicode, Arial, Sans-serif" font-weight="bold" font-size="5px" fill="#000000" y="115" x="0">Created by artworkbean</text><text font-family="'Helvetica Neue', Helvetica, Arial-Unicode, Arial, Sans-serif" font-weight="bold" font-size="5px" fill="#000000" y="120" x="0">from the Noun Project</text></svg>